<?xml version="1.0" standalone="no"?>
<!DOCTYPE svg PUBLIC "-//W3C//DTD SVG 20010904//EN"
 "http://www.w3.org/TR/2001/REC-SVG-20010904/DTD/svg10.dtd">
<svg version="1.0" xmlns="http://www.w3.org/2000/svg"
 width="700.000000pt" height="700.000000pt" viewBox="0 0 700.000000 700.000000"
 preserveAspectRatio="xMidYMid meet">
<metadata>
Created by potrace 1.11, written by Peter Selinger 2001-2013
</metadata>
<g transform="translate(0.000000,700.000000) scale(0.100000,-0.100000)"
fill="#000000" stroke="none">
<path d="M1410 6815 l0 -185 -93 0 -92 0 0 -205 0 -205 1400 -1 c2608 0 3180
0 3193 0 9 1 12 49 12 206 l0 205 -90 0 c-65 0 -90 4 -91 13 -1 6 -2 89 -3
182 l-1 170 -184 0 -185 0 1 -183 0 -182 -138 1 -138 0 1 182 1 182 -187 3
-187 2 2 -162 c0 -90 1 -173 0 -185 l-1 -23 -1104 0 -1103 0 0 183 1 182 -185
3 -185 2 0 -182 0 -183 -139 -3 -140 -3 0 183 0 183 -182 3 -183 2 0 -185z"/>
<path d="M1853 6032 c-31 -3 -33 -5 -33 -45 -1 -136 -105 -332 -252 -473 -65
-61 -182 -154 -196 -154 -5 0 -15 -6 -21 -14 -41 -49 -317 -180 -541 -256
l-165 -56 0 -92 c-1 -105 -9 -100 100 -68 342 99 656 256 869 436 105 88 160
147 231 245 31 44 58 81 60 83 2 2 17 -25 35 -59 85 -167 275 -392 440 -519
25 -19 47 -38 50 -41 16 -18 221 -156 315 -211 109 -65 303 -168 317 -168 3 0
6 45 6 100 l0 100 -36 18 c-111 56 -289 163 -397 241 -387 278 -595 567 -622
865 -3 34 -7 63 -9 65 -5 6 -106 7 -151 3z"/>
<path d="M2580 6032 c-13 -5 3 -17 358 -276 l312 -229 0 -497 0 -497 -202 -62
c-112 -34 -255 -75 -318 -91 -136 -36 -527 -123 -620 -139 -36 -6 -76 -13 -90
-16 -14 -3 -38 -7 -55 -10 -16 -3 -52 -10 -80 -15 -27 -5 -70 -12 -95 -15 -25
-3 -52 -8 -60 -10 -8 -2 -40 -7 -70 -10 -30 -3 -62 -8 -70 -10 -12 -4 -142
-20 -390 -50 -53 -6 -222 -22 -320 -29 -25 -2 -85 -7 -135 -11 -49 -4 -92 -9
-95 -10 -3 -2 -5 -43 -5 -92 l0 -88 40 1 c41 1 189 12 260 19 22 3 112 11 200
20 88 9 210 23 270 30 61 8 130 17 155 20 25 3 56 7 70 10 27 5 40 7 165 25
79 12 95 15 145 25 14 2 41 7 60 10 29 4 177 33 265 51 11 2 36 7 55 11 41 8
31 6 100 21 30 7 64 14 75 16 18 4 77 19 190 48 22 5 50 12 63 14 13 3 107 29
210 60 103 30 201 59 217 63 17 5 38 12 48 16 16 7 17 -100 17 -2164 l0 -2171
277 2 278 3 0 2270 0 2270 215 107 c368 182 604 343 820 558 36 36 83 88 105
115 22 28 42 52 45 55 20 20 101 147 126 198 l32 64 16 -24 c132 -189 259
-312 450 -437 154 -100 414 -219 621 -284 130 -41 119 -46 120 60 1 90 0 93
-25 101 -14 5 -79 29 -144 52 -466 164 -810 435 -917 719 -11 30 -25 89 -31
131 l-11 75 -84 -1 c-46 -1 -86 -4 -90 -8 -4 -4 -8 -17 -9 -29 -21 -334 -253
-653 -689 -944 -139 -93 -378 -225 -525 -289 l-25 -12 0 390 c0 335 2 391 15
398 13 7 363 263 443 323 16 12 74 54 129 94 90 65 98 73 72 74 -96 3 -1876 3
-1884 1z"/>
<path d="M3989 4408 c-1 -67 1 -121 5 -126 6 -6 253 -74 406 -111 218 -53 480
-109 640 -135 19 -3 46 -8 60 -11 45 -9 77 -15 121 -20 44 -6 57 -8 159 -25
30 -5 79 -12 109 -15 30 -4 62 -8 72 -10 10 -2 46 -6 81 -10 35 -3 74 -8 88
-10 14 -2 50 -6 80 -10 30 -3 69 -8 85 -10 17 -2 64 -6 105 -10 41 -3 95 -8
120 -10 25 -2 83 -7 130 -10 47 -4 89 -7 94 -8 10 -2 16 172 6 178 -9 5 -80
13 -175 20 -44 3 -96 7 -115 10 -19 2 -66 7 -105 10 -38 4 -83 8 -100 10 -16
2 -52 7 -80 10 -132 15 -300 37 -390 51 -55 9 -113 18 -130 20 -262 37 -776
150 -1097 240 -87 24 -160 44 -163 44 -3 0 -5 -28 -6 -62z"/>
</g>
</svg>
