<svg xmlns="http://www.w3.org/2000/svg" xmlns:xlink="http://www.w3.org/1999/xlink" xml:space="preserve" width="90px" height="90px" style="shape-rendering:geometricPrecision; text-rendering:geometricPrecision; image-rendering:optimizeQuality; fill-rule:evenodd; clip-rule:evenodd" viewBox="0 0 15.727 19.2782">
 <defs>
  <style type="text/css">
   
    .str0 {stroke:black;stroke-width:1.50665;stroke-linecap:round}
    .str1 {stroke:black;stroke-width:2.05897}
    .fil0 {fill:none}
    .fil1 {fill:black}
   
  </style>
 </defs>
<symbol id="New_Symbol_4" viewBox="-69.6086 -34.3992 24.6086 4.15318">
 <path class="fil0 str0" d="M-68.7611 -32.6994c0,0 1.4019,1.84139 4.83384,1.69502 3.43194,-0.146372 4.51995,-1.4019 7.15662,-2.19717 4.56186,-1.33914 10.9232,0.753279 10.9232,0.753279"/>
 <polygon class="fil0" points="-69.6086,-30.3139 -45,-30.3139 -45,-34.3317 -69.6086,-34.3317 " display="none"/>
</symbol>
<symbol id="New_Symbol" viewBox="-65.5897 -50.1698 20.5897 19.9189">
 <path class="fil1 str1" d="M-46.7789 -48.8035c-1.3631,-1.3507 -6.27989,1.40218 -10.9827,6.14808 -4.70062,4.7459 -7.40821,9.6875 -6.04511,11.0382 1.3631,1.3507 6.27989,-1.40218 10.9805,-6.14808 4.70268,-4.74599 7.41028,-9.6875 6.04727,-11.0382z"/>
 <polygon class="fil0" points="-65.5897,-31.9734 -45,-31.9734 -45,-48.4453 -65.5897,-48.4453 " display="none"/>
</symbol>
<symbol id="New_Symbol_1" viewBox="-69.6086 -47.751 24.6086 17.508">
 <path class="fil1" d="M-51.8307 -47.191c0.162531,0 0.28767,0.223691 0.368372,0.300353 0.271041,0.397684 1.1193,2.26979 1.12982,4.48745 0.00723403,1.57824 -1.18197,2.72103 -0.0246145,3.8672 1.1566,1.14608 5.26985,5.21452 5.26985,5.21452 0,0 -1.01145,0.3105 -1.95601,1.19963 -0.944558,0.889128 1.09328,-1.10521 0.127394,-0.130307 -0.849388,0.771505 -1.22753,2.00918 -1.22753,2.00918 0,0 -4.11353,-4.07548 -5.27013,-5.22166 -1.15698,-1.14608 -2.2604,0.0101464 -3.83826,0.0177563 -2.21803,0.0101464 -3.82586,-0.483835 -4.48378,-1.13095 -0.657921,-0.647117 -5.04917,-4.96433 -7.78579,-7.66591 0,0 2.32879,-0.0691461 4.39369,-0.972742 2.06489,-0.903596 4.55913,-1.97451 4.55913,-1.97451 0,0 1.00788,-0.349582 2.34975,-0.505161 2.30963,-0.263807 6.38812,0.505161 6.38812,0.505161z"/>
 <polygon class="fil0" points="-69.6086,-30.3116 -45,-30.3116 -45,-47.6824 -69.6086,-47.6824 " display="none"/>
</symbol>
<symbol id="New_Symbol_2" viewBox="-69.6086 -34.3992 24.6086 4.15318">
 <path class="fil0 str0" d="M-68.7611 -32.6994c0,0 1.4019,1.84139 4.83384,1.69502 3.43194,-0.146372 4.51995,-1.4019 7.15662,-2.19717 4.56186,-1.33914 10.9232,0.753279 10.9232,0.753279"/>
 <polygon class="fil0" points="-69.6086,-30.3139 -45,-30.3139 -45,-34.3317 -69.6086,-34.3317 " display="none"/>
</symbol>
<symbol id="New_Symbol_3" viewBox="-69.6086 -34.3992 24.6086 4.15318">
 <path class="fil0 str0" d="M-68.7611 -32.6994c0,0 1.4019,1.84139 4.83384,1.69502 3.43194,-0.146372 4.51995,-1.4019 7.15662,-2.19717 4.56186,-1.33914 10.9232,0.753279 10.9232,0.753279"/>
 <polygon class="fil0" points="-69.6086,-30.3139 -45,-30.3139 -45,-34.3317 -69.6086,-34.3317 " display="none"/>
</symbol>
 <g id="Layer_x0020_1">
  <metadata id="CorelCorpID_0Corel-Layer"/>
  <path class="fil1" d="M3.24686 2.66344c0,0.991532 -0.926896,1.73053 -1.72273,2.15236 -0.471997,0.250091 -0.988244,0.444846 -1.52413,0.591406l0 0.52489c0.61912,-0.159806 1.21691,-0.379364 1.76172,-0.668068 0.662525,-0.351179 1.34111,-0.867802 1.71043,-1.53794 0.223973,0.520287 0.5946,0.979131 1.01765,1.36977 0.621187,0.573461 1.39138,1.04189 2.18148,1.42266l0 -0.565758c-0.668068,-0.33859 -1.31246,-0.745105 -1.83735,-1.22969 -0.582011,-0.537291 -1.07975,-1.23646 -1.07975,-2.05963l-0.507322 0z"/>
  <path class="fil1" d="M-0 8.10503c1.11038,-0.071119 2.21803,-0.193816 3.31234,-0.374666 1.29705,-0.214296 2.61158,-0.514274 3.86626,-0.939203l0 -2.73259 -1.90246 -1.39513 5.32688 0 -1.90246 1.39513 0 2.13695c0.843469,-0.381713 1.68769,-0.865923 2.34467,-1.47245 0.582011,-0.537291 1.07975,-1.23646 1.07975,-2.05963l0.507322 0c0,0.991532 0.926802,1.73053 1.72273,2.15236 0.42709,0.226322 0.890538,0.407361 1.37193,0.548377l0 0.527333c-0.564912,-0.155767 -1.10953,-0.362453 -1.60953,-0.627482 -0.662619,-0.351179 -1.34111,-0.867802 -1.71043,-1.53794 -0.223973,0.520287 -0.5946,0.979131 -1.01765,1.36977 -0.753842,0.695876 -1.72696,1.23711 -2.68881,1.65453l0 12.5278 -1.52197 0 0 -11.9522c-1.23148,0.405106 -2.515,0.695313 -3.78359,0.904912 -1.12156,0.18536 -2.25692,0.310594 -3.39502,0.382464l0 -0.508355z"/>
  <path class="fil1" d="M15.727 8.09488c-1.05936,-0.0723403 -2.11591,-0.191937 -3.16014,-0.36452 -1.12325,-0.185548 -2.25965,-0.435451 -3.35894,-0.775075l0 0.530339c1.07439,0.323277 2.18092,0.564348 3.27617,0.745293 1.07167,0.176999 2.15584,0.29932 3.24291,0.372506l0 -0.508543z"/>
  <polygon class="fil1" points="2.10539,0 3.12003,0 3.12003,1.01464 3.88101,1.01464 3.88101,0 4.89565,0 4.89565,1.01464 10.9835,1.01464 10.9835,0 11.9982,0 11.9982,1.01464 12.7591,1.01464 12.7591,0 13.7738,0 13.7738,1.01464 14.2811,1.01464 14.2811,2.15612 1.59806,2.14616 1.59806,1.01464 2.10539,1.01464 "/>
 </g>
</svg>